<svg xmlns="http://www.w3.org/2000/svg" width="600" height="900" viewBox="0 0 600 900" role="img" aria-labelledby="titulo descripcion">
  <title id="titulo">Póster de Primavera</title>
  <desc id="descripcion">Póster académico en tonos cálidos con flores y una figura en el horizonte.</desc>
  <defs>
    <linearGradient id="fondo" x1="0" y1="0" x2="0" y2="1">
      <stop offset="0" stop-color="#ffb4a2"/>
      <stop offset="0.55" stop-color="#ffcdb2"/>
      <stop offset="1" stop-color="#6d6875"/>
    </linearGradient>
  </defs>
  <rect width="600" height="900" fill="url(#fondo)"/>
  <circle cx="300" cy="260" r="105" fill="#fff1e6" opacity="0.8"/>
  <path d="M0 610 Q150 500 300 610 Q450 500 600 610 V900 H0 Z" fill="#355070"/>
  <path d="M0 690 Q180 580 360 690 Q480 625 600 685 V900 H0 Z" fill="#6d597a"/>
  <circle cx="300" cy="520" r="34" fill="#2b2d42"/>
  <path d="M270 690 L285 550 H315 L338 690 Z" fill="#2b2d42"/>
  <g fill="#eaac8b">
    <circle cx="90" cy="640" r="18"/><circle cx="130" cy="670" r="13"/><circle cx="480" cy="650" r="16"/><circle cx="525" cy="620" r="12"/>
  </g>
  <text x="300" y="760" text-anchor="middle" fill="#ffffff" font-family="Arial, sans-serif" font-size="70" font-weight="700">PRIMAVERA</text>
  <text x="300" y="820" text-anchor="middle" fill="#ffcdb2" font-family="Arial, sans-serif" font-size="24" letter-spacing="5">PRÓXIMO ESTRENO</text>
</svg>
